HIERARCHY
ROOT Hips
{
 OFFSET 0.000000 0.000000 0.000000
 CHANNELS 6 Xposition Yposition Zposition Yrotation Xrotation Zrotation
 JOINT Chest
 {
  OFFSET 0.000000 9.585900 0.002600
  CHANNELS 3 Yrotation Xrotation Zrotation
  JOINT Chest2
  {
   OFFSET 0.000000 9.601200 -0.005300
   CHANNELS 3 Yrotation Xrotation Zrotation
   JOINT Chest3
   {
    OFFSET 0.000000 9.561800 0.000000
    CHANNELS 3 Yrotation Xrotation Zrotation
    JOINT Chest4
    {
     OFFSET 0.000000 9.552100 0.000000
     CHANNELS 3 Yrotation Xrotation Zrotation
     JOINT Neck
     {
      OFFSET 0.000000 14.453000 0.000000
      CHANNELS 3 Yrotation Xrotation Zrotation
      JOINT Head
      {
       OFFSET 0.000000 8.936500 -0.011300
       CHANNELS 3 Yrotation Xrotation Zrotation
       End Site
       {
        OFFSET 0.000000 17.073600 -0.006000
       }
      }
     }
     JOINT RightCollar
     {
      OFFSET -2.921100 9.558500 0.000000
      CHANNELS 3 Yrotation Xrotation Zrotation
      JOINT RightShoulder
      {
       OFFSET -13.519700 0.000000 0.000000
       CHANNELS 3 Yrotation Xrotation Zrotation
       JOINT RightElbow
       {
        OFFSET 0.000000 -29.696600 0.000000
        CHANNELS 3 Yrotation Xrotation Zrotation
        JOINT RightWrist
        {
         OFFSET 0.000000 -24.004700 0.000000
         CHANNELS 3 Yrotation Xrotation Zrotation
         End Site
         {
          OFFSET 0.000000 -17.728500 0.000000
         }
        }
       }
      }
     }
     JOINT LeftCollar
     {
      OFFSET 2.921100 9.558500 0.000000
      CHANNELS 3 Yrotation Xrotation Zrotation
      JOINT LeftShoulder
      {
       OFFSET 13.519700 0.000000 0.000000
       CHANNELS 3 Yrotation Xrotation Zrotation
       JOINT LeftElbow
       {
        OFFSET 0.000000 -29.696600 0.000000
        CHANNELS 3 Yrotation Xrotation Zrotation
        JOINT LeftWrist
        {
         OFFSET 0.000000 -24.004700 0.000000
         CHANNELS 3 Yrotation Xrotation Zrotation
         End Site
         {
          OFFSET 0.000000 -17.728500 0.000000
         }
        }
       }
      }
     }
    }
   }
  }
 }
 JOINT RightHip
 {
  OFFSET -7.771700 -0.012900 -0.001300
  CHANNELS 3 Yrotation Xrotation Zrotation
  JOINT RightKnee
  {
   OFFSET 0.000000 -40.869800 0.001200
   CHANNELS 3 Yrotation Xrotation Zrotation
   JOINT RightAnkle
   {
    OFFSET 0.000000 -39.717900 0.002100
    CHANNELS 3 Yrotation Xrotation Zrotation
    JOINT RightToe
    {
     OFFSET 0.000000 -4.965400 11.033500
     CHANNELS 3 Yrotation Xrotation Zrotation
     End Site
     {
      OFFSET 0.000000 -1.423100 5.872300
     }
    }
   }
  }
 }
 JOINT LeftHip
 {
  OFFSET 7.771700 -0.012900 -0.001300
  CHANNELS 3 Yrotation Xrotation Zrotation
  JOINT LeftKnee
  {
   OFFSET 0.000000 -40.869800 0.001200
   CHANNELS 3 Yrotation Xrotation Zrotation
   JOINT LeftAnkle
   {
    OFFSET 0.000000 -39.717900 0.002100
    CHANNELS 3 Yrotation Xrotation Zrotation
    JOINT LeftToe
    {
     OFFSET 0.000000 -4.965400 11.033500
     CHANNELS 3 Yrotation Xrotation Zrotation
     End Site
     {
      OFFSET 0.000000 -1.423100 5.872300
     }
    }
   }
  }
 }
}
MOTION
Frames: 16
Frame Time: 0.008333
0.000000 85.388000 0.000000 0.000000 -5.767877 0.000000 0.000000 11.653817 0.000000 0.000000 -5.885947 0.000000 0.000000 -0.000000 0.000000 0.000000 -0.000000 0.000000 0.000000 12.528835 0.000000 0.000000 0.711642 0.000000 0.000000 -0.000000 0.000000 0.000000 0.000000 -90.000000 0.000000 -2.309062 0.000000 0.000000 2.309062 0.000000 0.000000 -0.000000 0.000000 0.000000 -0.000000 90.000000 0.000000 -2.309062 0.000000 0.000000 2.309062 0.000000 0.000000 8.520406 0.000000 0.000000 1.905762 0.000000 -0.000000 -4.658285 0.000000 0.000000 -0.000000 0.000000 0.000000 8.520406 0.000000 0.000000 1.905762 0.000000 -0.000000 -4.658285 0.000000 0.000000 -0.000000 0.000000
-30.700972 55.971862 36.742602 -167.433797 -29.857701 -11.078265 -4.122848 14.610205 5.232090 -2.394883 8.477818 1.418398 -2.968896 10.613541 1.721840 -2.394276 8.470079 1.418487 -1.179935 18.723185 -2.354489 -0.719628 -5.968482 -2.241077 4.278526 -4.763496 -5.419815 0.366170 -15.634976 3.163136 63.531744 -38.591447 -45.210877 14.633874 13.552510 -3.085020 -10.671580 -1.791690 -3.681250 -5.804971 -12.875143 2.160829 -63.299940 -37.365755 62.675421 -3.680855 -5.570119 -4.013544 -24.391417 -27.810076 3.478224 71.218051 87.655986 68.354478 1.581555 -28.358182 -2.180523 -0.976678 2.701771 -0.434113 -16.189991 -45.127620 5.155568 176.887082 73.332905 175.088559 -0.468618 -25.425385 0.622340 -0.239702 -1.367321 -0.098922
-30.702950 55.967833 36.749081 -167.444107 -29.857246 -11.068886 -4.114691 14.611618 5.228899 -2.397805 8.491330 1.417426 -2.966050 10.603921 1.722759 -2.395266 8.482967 1.418542 -1.191183 18.704669 -2.373431 -0.748439 -5.989917 -2.309147 4.282576 -4.785503 -5.426155 0.331134 -15.594732 3.162141 63.508004 -38.667445 -45.169341 14.580854 13.508097 -3.233432 -10.651653 -1.809190 -3.683250 -5.755509 -12.849377 2.141796 -63.350471 -37.399469 62.698760 -3.685856 -5.594990 -4.005098 -24.380479 -27.832248 3.478109 71.542629 87.664712 68.682310 1.579256 -28.341760 -2.181733 -0.976056 2.688261 -0.434211 -16.178990 -45.138687 5.152030 176.896536 73.331051 175.092792 -0.475937 -25.423790 0.626142 -0.235652 -1.362963 -0.095351
-30.706018 55.964202 36.754905 -167.444177 -29.865616 -11.058940 -4.118231 14.627949 5.216565 -2.395806 8.487179 1.418217 -2.974908 10.629897 1.721174 -2.398158 8.492737 1.418164 -1.200142 18.666470 -2.411310 -0.749626 -6.010726 -2.348113 4.295144 -4.824680 -5.443914 0.318714 -15.582927 3.176642 63.488883 -38.699347 -45.144232 14.497315 13.474748 -3.365878 -10.629161 -1.831360 -3.672848 -5.738273 -12.846591 2.128712 -63.361188 -37.429463 62.715958 -3.689835 -5.612613 -3.998912 -24.373429 -27.846861 3.470808 71.904379 87.673605 69.043995 1.569545 -28.325963 -2.182455 -0.967656 2.672916 -0.429708 -16.163968 -45.140649 5.136918 176.909407 73.330840 175.098719 -0.484597 -25.424082 0.630474 -0.232374 -1.356124 -0.088448
-30.734691 55.977804 36.728888 -167.686035 -30.161504 -10.815751 -3.895601 14.874024 5.071930 -2.394697 8.487905 1.417863 -2.982002 10.645222 1.722425 -2.393287 8.484332 1.416797 -1.233529 18.658387 -2.487375 -0.732707 -6.037416 -2.356910 4.280758 -4.837194 -5.472059 0.283928 -15.546009 3.213331 63.471370 -38.777089 -45.100219 14.489862 13.453502 -3.499663 -10.625930 -1.833555 -3.666673 -5.725600 -12.846255 2.119615 -63.322146 -37.467827 62.709793 -3.714832 -5.641140 -4.000105 -24.005750 -27.698601 3.227463 73.069047 87.685387 70.185614 1.557004 -28.330931 -2.158124 -0.967576 2.660649 -0.433084 -15.684226 -44.662276 4.837584 176.867890 73.498880 175.042757 -0.620729 -26.112630 0.640264 -0.115385 -0.769707 -0.033588
-30.730932 55.974614 36.735366 -167.696577 -30.162412 -10.834737 -3.881118 14.876382 5.096905 -2.407518 8.510172 1.419860 -2.982273 10.645481 1.721931 -2.383587 8.474095 1.413777 -1.245694 18.648485 -2.523599 -0.723864 -6.067041 -2.399964 4.283735 -4.851386 -5.486847 0.226157 -15.488820 3.263559 63.508126 -38.826418 -45.113371 14.472317 13.436614 -3.626754 -10.622523 -1.841956 -3.663236 -5.703179 -12.824074 2.113715 -63.334484 -37.496549 62.731365 -3.717047 -5.652134 -3.998054 -24.009736 -27.693569 3.257035 73.005418 87.673224 70.124131 1.563762 -28.341985 -2.162097 -0.980198 2.682194 -0.440651 -15.697354 -44.666396 4.877741 176.913872 73.491313 175.083385 -0.615266 -26.115020 0.642148 -0.118459 -0.766810 -0.032463
-30.730673 55.971870 36.740605 -167.693541 -30.169326 -10.836616 -3.889550 14.891865 5.097664 -2.402992 8.506374 1.417896 -2.993023 10.660552 1.723948 -2.389037 8.487498 1.412722 -1.241589 18.620463 -2.560374 -0.707766 -6.096850 -2.445076 4.303709 -4.883022 -5.499811 0.217845 -15.477872 3.277996 63.510173 -38.835403 -45.115886 14.421119 13.421075 -3.727063 -10.605389 -1.868508 -3.660065 -5.686939 -12.800690 2.112524 -63.341725 -37.530403 62.750846 -3.720111 -5.658757 -3.992998 -24.010488 -27.695919 3.259309 73.154025 87.677134 70.274973 1.560928 -28.343146 -2.163717 -0.978629 2.685689 -0.440906 -15.691789 -44.667614 4.878816 176.945760 73.488226 175.109226 -0.617045 -26.112886 0.651600 -0.115173 -0.765254 -0.033688
-30.730645 55.970391 36.743662 -167.691448 -30.187017 -10.834313 -3.907121 14.916441 5.098816 -2.401153 8.514523 1.410856 -2.998588 10.666445 1.726494 -2.418156 8.527949 1.420729 -1.208401 18.565812 -2.613010 -0.697828 -6.113943 -2.455809 4.351697 -4.937453 -5.539660 0.215010 -15.472041 3.297085 63.477079 -38.863553 -45.090740 14.415473 13.406387 -3.822433 -10.562591 -1.913718 -3.657869 -5.674766 -12.802678 2.100940 -63.335492 -37.558534 62.755915 -3.720694 -5.660457 -3.982410 -24.005386 -27.688528 3.252359 73.315587 87.680406 70.438295 1.556957 -28.344519 -2.160051 -0.974479 2.686910 -0.445645 -15.672965 -44.656240 4.869984 176.979702 73.486603 175.137509 -0.620870 -26.112758 0.664279 -0.114857 -0.764037 -0.035316
-30.730701 55.969470 36.745745 -167.679566 -30.204638 -10.832807 -3.926168 14.936225 5.091983 -2.404001 8.523210 1.413792 -3.008255 10.674653 1.725446 -2.426007 8.533967 1.421259 -1.187533 18.550432 -2.653245 -0.690198 -6.131976 -2.468281 4.374938 -4.956654 -5.563594 0.238210 -15.463062 3.329754 63.453629 -38.859226 -45.100643 14.402010 13.400602 -3.909551 -10.536428 -1.934584 -3.664080 -5.672410 -12.801943 2.097519 -63.322612 -37.578040 62.749987 -3.722180 -5.661503 -3.972237 -24.006900 -27.678602 3.240106 73.448546 87.686093 70.572347 1.553914 -28.348973 -2.159193 -0.969541 2.687825 -0.444468 -15.658100 -44.643651 4.852505 177.006050 73.485952 175.161720 -0.625156 -26.113477 0.669004 -0.116275 -0.763137 -0.037145
-30.728504 55.969429 36.746806 -167.668810 -30.222862 -10.841259 -3.937119 14.956557 5.094219 -2.414142 8.530256 1.416239 -2.999332 10.671541 1.720888 -2.450682 8.549896 1.431279 -1.158265 18.540575 -2.691841 -0.665138 -6.147373 -2.516435 4.401263 -4.972142 -5.585050 0.248480 -15.463680 3.337990 63.437848 -38.865514 -45.097686 14.384473 13.403232 -3.989182 -10.509518 -1.951343 -3.671496 -5.669700 -12.787170 2.098737 -63.317205 -37.608866 62.758378 -3.719565 -5.664404 -3.962673 -24.022725 -27.658376 3.240485 73.437088 87.687486 70.556604 1.559577 -28.358425 -2.163743 -0.969187 2.697033 -0.447631 -15.659238 -44.626410 4.852929 177.032124 73.483529 175.185248 -0.629086 -26.117127 0.669093 -0.114143 -0.761588 -0.034487
-30.725583 55.969751 36.747675 -167.659828 -30.238450 -10.850072 -3.947031 14.974216 5.098186 -2.445775 8.540981 1.422913 -2.990407 10.675852 1.714056 -2.458723 8.550115 1.435376 -1.129221 18.530824 -2.722593 -0.621406 -6.152521 -2.577359 4.424098 -4.984323 -5.602392 0.265025 -15.463626 3.339747 63.431695 -38.876078 -45.096206 14.370342 13.414228 -4.061509 -10.485421 -1.952724 -3.659548 -5.658368 -12.784305 2.077341 -63.312312 -37.641480 62.768052 -3.712598 -5.669120 -3.956969 -24.038502 -27.639375 3.236056 73.409433 87.685891 70.534111 1.571326 -28.368257 -2.180743 -0.970338 2.706635 -0.446181 -15.666793 -44.611719 4.858963 177.053337 73.480340 175.200795 -0.631297 -26.117642 0.672927 -0.114832 -0.763907 -0.037489
-30.722650 55.970552 36.748377 -167.650330 -30.253023 -10.857170 -3.963760 14.991456 5.097572 -2.444406 8.542497 1.424168 -3.035884 10.690294 1.732015 -2.433757 8.542990 1.417651 -1.105268 18.526787 -2.749052 -0.568411 -6.152638 -2.635223 4.442993 -4.986189 -5.614130 0.277784 -15.469945 3.341133 63.428011 -38.907969 -45.101161 14.380233 13.438465 -4.110738 -10.467580 -1.960910 -3.658899 -5.657398 -12.758321 2.076378 -63.301527 -37.684864 62.778749 -3.719903 -5.673902 -3.951054 -24.046385 -27.625160 3.233615 73.411180 87.691472 70.541209 1.580052 -28.365801 -2.191155 -0.971579 2.702575 -0.443512 -15.679809 -44.596126 4.866748 177.081086 73.479313 175.219104 -0.633051 -26.121827 0.672441 -0.114735 -0.762296 -0.035887
-30.718450 55.971184 36.750437 -167.647201 -30.257537 -10.865516 -3.978157 14.996834 5.104290 -2.441613 8.544881 1.423489 -3.052283 10.693212 1.742279 -2.441372 8.545827 1.420193 -1.040243 18.520650 -2.792133 -0.478591 -6.164884 -2.715216 4.472688 -4.972379 -5.617909 0.291810 -15.491133 3.320004 63.422223 -38.912706 -45.104008 14.366584 13.442176 -4.155319 -10.440525 -1.970914 -3.675841 -5.656469 -12.751089 2.074399 -63.284797 -37.710737 62.766037 -3.725339 -5.677874 -3.943334 -24.055272 -27.616749 3.238958 73.324211 87.690164 70.460749 1.593331 -28.370799 -2.204984 -0.978924 2.709793 -0.444340 -15.715359 -44.589207 4.904246 177.145884 73.478173 175.257620 -0.638257 -26.125827 0.679004 -0.111529 -0.758881 -0.033605
-30.713084 55.972430 36.752824 -167.650897 -30.260779 -10.876540 -3.984228 14.998763 5.121464 -2.449629 8.547686 1.425886 -3.056035 10.692565 1.746098 -2.452415 8.551062 1.422239 -0.986900 18.506895 -2.822793 -0.400048 -6.178467 -2.773865 4.503046 -4.972107 -5.641537 0.286076 -15.488308 3.317298 63.432650 -38.926773 -45.112461 14.351115 13.444745 -4.196634 -10.415082 -1.978984 -3.693257 -5.660503 -12.735150 2.081926 -63.274463 -37.739157 62.763326 -3.715800 -5.682439 -3.948096 -24.064226 -27.603885 3.254877 73.113089 87.679785 70.250806 1.606812 -28.383654 -2.214944 -0.991222 2.727592 -0.449936 -15.745337 -44.581931 4.943188 177.184028 73.477292 175.276717 -0.638977 -26.133092 0.684355 -0.113973 -0.755716 -0.038391
-30.703005 55.973520 36.757488 -167.679892 -30.250201 -10.900333 -3.972122 14.974316 5.172029 -2.448122 8.559198 1.419542 -3.056984 10.685413 1.752602 -2.456397 8.550713 1.425701 -0.937529 18.498625 -2.852168 -0.341130 -6.186813 -2.816384 4.520006 -4.950513 -5.645606 0.289220 -15.497410 3.293675 63.441549 -38.951380 -45.132592 14.342099 13.451833 -4.224334 -10.405553 -1.967381 -3.704923 -5.680910 -12.728428 2.113338 -63.246465 -37.776313 62.750653 -3.708178 -5.683117 -3.942397 -24.068401 -27.595574 3.303335 72.818999 87.668098 69.960011 1.656088 -28.404600 -2.228110 -1.033594 2.754812 -0.468852 -15.778165 -44.587204 5.017003 177.227713 73.471662 175.313556 -0.629800 -26.140944 0.679364 -0.114116 -0.756398 -0.042073
-30.692022 55.975433 36.762359 -167.702677 -30.239043 -10.933570 -3.949674 14.949766 5.224870 -2.456322 8.564458 1.424910 -3.054881 10.680606 1.750865 -2.460245 8.538056 1.441091 -0.916204 18.512260 -2.887183 -0.249771 -6.202874 -2.867499 4.531012 -4.911977 -5.647768 0.277233 -15.497564 3.267570 63.468277 -39.024579 -45.190440 14.372895 13.471472 -4.216890 -10.399723 -1.942190 -3.724624 -5.698185 -12.732169 2.129673 -63.230897 -37.788235 62.737274 -3.699720 -5.688171 -3.945940 -24.071480 -27.580982 3.359339 72.331338 87.639898 69.482837 1.664827 -28.418142 -2.238452 -1.056398 2.786164 -0.479574 -15.813866 -44.591596 5.092368 177.236376 73.465452 175.325118 -0.625936 -26.148176 0.669311 -0.117906 -0.754301 -0.041784
